<mxfile host="65bd71144e">
    <diagram id="GKRSnOi9xEymZ-0PksYM" name="Page-1">
        <mxGraphModel dx="1467" dy="1014" grid="1" gridSize="10" guides="1" tooltips="1" connect="1" arrows="1" fold="1" page="1" pageScale="1" pageWidth="827" pageHeight="1169" math="0" shadow="0">
            <root>
                <mxCell id="0"/>
                <mxCell id="1" parent="0"/>
                <mxCell id="2" value="" style="rounded=0;whiteSpace=wrap;html=1;fillColor=#F9C784;" vertex="1" parent="1">
                    <mxGeometry x="80" y="80" width="790" height="400" as="geometry"/>
                </mxCell>
                <mxCell id="3" value="" style="rounded=0;whiteSpace=wrap;html=1;fillColor=#4E598C;" vertex="1" parent="1">
                    <mxGeometry x="80" y="80" width="790" height="50" as="geometry"/>
                </mxCell>
                <mxCell id="4" value="Beerlog" style="text;html=1;strokeColor=none;fillColor=none;align=center;verticalAlign=middle;whiteSpace=wrap;rounded=0;fontColor=#FFFFFF;fontSize=22;fontStyle=1" vertex="1" parent="1">
                    <mxGeometry x="110" y="90" width="60" height="30" as="geometry"/>
                </mxCell>
                <mxCell id="10" value="" style="rounded=0;whiteSpace=wrap;html=1;fillColor=#F9B364;" vertex="1" parent="1">
                    <mxGeometry x="220" y="190" width="510" height="210" as="geometry"/>
                </mxCell>
                <mxCell id="11" value="Email :&lt;br style=&quot;font-size: 18px;&quot;&gt;&lt;br style=&quot;font-size: 18px;&quot;&gt;&lt;div style=&quot;font-size: 18px;&quot;&gt;&lt;span style=&quot;background-color: initial; font-size: 18px;&quot;&gt;Password :&amp;nbsp;&lt;/span&gt;&lt;/div&gt;" style="text;html=1;strokeColor=none;fillColor=none;align=left;verticalAlign=top;whiteSpace=wrap;rounded=0;fontSize=18;" vertex="1" parent="1">
                    <mxGeometry x="290" y="235" width="140" height="80" as="geometry"/>
                </mxCell>
                <mxCell id="13" value="" style="rounded=0;whiteSpace=wrap;html=1;fontSize=18;fillColor=#FFFFFF;" vertex="1" parent="1">
                    <mxGeometry x="358" y="242" width="312" height="20" as="geometry"/>
                </mxCell>
                <mxCell id="14" value="" style="rounded=0;whiteSpace=wrap;html=1;fontSize=18;fillColor=#FFFFFF;" vertex="1" parent="1">
                    <mxGeometry x="390" y="287" width="280" height="20" as="geometry"/>
                </mxCell>
                <mxCell id="16" value="Login" style="rounded=1;whiteSpace=wrap;html=1;strokeColor=#000000;fontSize=14;fontColor=#FFFFFF;fillColor=#FF8C42;gradientColor=none;" vertex="1" parent="1">
                    <mxGeometry x="430" y="330" width="90" height="33.6" as="geometry"/>
                </mxCell>
            </root>
        </mxGraphModel>
    </diagram>
</mxfile>